<?xml version="1.0" encoding="UTF-8" standalone="yes"?>
<svg xmlns="http://www.w3.org/2000/svg" viewBox="0 0 26 26" width="26" height="26" fill="#61bbed">
  <path d="M 13 2.1875 C 12.007813 2.1875 11.1875 3.007813 11.1875 4 C 11.1875 4.992188 12.007813 5.8125 13 5.8125 C 13.992188 5.8125 14.8125 4.992188 14.8125 4 C 14.8125 3.007813 13.992188 2.1875 13 2.1875 Z M 19.40625 4.8125 C 18.414063 4.8125 17.59375 5.601563 17.59375 6.59375 C 17.59375 7.585938 18.414063 8.40625 19.40625 8.40625 C 20.398438 8.40625 21.1875 7.585938 21.1875 6.59375 C 21.1875 5.601563 20.398438 4.8125 19.40625 4.8125 Z M 6.59375 5.09375 C 5.765625 5.09375 5.09375 5.765625 5.09375 6.59375 C 5.09375 7.421875 5.765625 8.09375 6.59375 8.09375 C 7.421875 8.09375 8.09375 7.421875 8.09375 6.59375 C 8.09375 5.765625 7.421875 5.09375 6.59375 5.09375 Z M 22 11.1875 C 21.007813 11.1875 20.1875 12.007813 20.1875 13 C 20.1875 13.992188 21.007813 14.8125 22 14.8125 C 22.992188 14.8125 23.8125 13.992188 23.8125 13 C 23.8125 12.007813 22.992188 11.1875 22 11.1875 Z M 4 11.8125 C 3.335938 11.8125 2.8125 12.335938 2.8125 13 C 2.8125 13.664063 3.335938 14.1875 4 14.1875 C 4.664063 14.1875 5.1875 13.664063 5.1875 13 C 5.1875 12.335938 4.664063 11.8125 4 11.8125 Z M 19.40625 17.40625 C 18.300781 17.40625 17.40625 18.300781 17.40625 19.40625 C 17.40625 20.511719 18.300781 21.40625 19.40625 21.40625 C 20.511719 21.40625 21.40625 20.511719 21.40625 19.40625 C 21.40625 18.300781 20.511719 17.40625 19.40625 17.40625 Z M 6.59375 18.40625 C 6.042969 18.40625 5.59375 18.855469 5.59375 19.40625 C 5.59375 19.957031 6.042969 20.40625 6.59375 20.40625 C 7.144531 20.40625 7.59375 19.957031 7.59375 19.40625 C 7.59375 18.855469 7.144531 18.40625 6.59375 18.40625 Z M 12.6875 19.59375 C 11.308594 19.59375 10.1875 20.714844 10.1875 22.09375 C 10.1875 23.472656 11.308594 24.59375 12.6875 24.59375 C 14.066406 24.59375 15.1875 23.472656 15.1875 22.09375 C 15.1875 20.714844 14.066406 19.59375 12.6875 19.59375 Z"/>
</svg>
